<svg xmlns="http://www.w3.org/2000/svg" xmlns:xlink="http://www.w3.org/1999/xlink" width="1500" zoomAndPan="magnify" viewBox="0 0 1125 1124.99995" height="1500" preserveAspectRatio="xMidYMid meet" version="1.0"><defs><clipPath id="f3879bbc99"><path d="M 56.660156 58.289062 L 1054.90625 58.289062 L 1054.90625 1056.539062 L 56.660156 1056.539062 Z M 56.660156 58.289062 " clip-rule="nonzero"/></clipPath></defs><g clip-path="url(#f3879bbc99)"><path fill="#ffbc89" d="M 553.371094 58.289062 C 698.960938 58.617188 767.472656 103.992188 810.292969 126.84375 C 784.601562 143.902344 772.613281 160.957031 758.910156 195.070312 C 683.546875 160.957031 630.449219 143.902344 553.371094 143.902344 C 272.472656 143.902344 142.296875 399.75 150.863281 553.261719 C 150.863281 749.410156 270.757812 860.277344 322.144531 894.390625 L 322.144531 382.695312 C 322.144531 314.46875 407.78125 288.882812 450.605469 331.527344 L 801.730469 706.769531 L 801.730469 237.714844 C 801.730469 169.488281 870.242188 152.429688 895.933594 152.429688 C 947.316406 152.429688 990.136719 195.070312 990.136719 237.714844 C 990.136719 333.230469 921.625 345.738281 887.371094 340.054688 L 887.371094 706.769531 C 873.667969 802.285156 776.039062 800.578125 750.34375 774.996094 L 416.347656 425.335938 L 416.347656 945.558594 C 484.859375 971.144531 561.9375 971.144531 570.5 971.144531 C 930.191406 928.503906 1024.394531 578.84375 930.191406 391.222656 C 964.445312 382.695312 998.703125 357.109375 1007.265625 348.582031 C 1169.984375 706.769531 889.019531 1063.804688 570.5 1056.425781 C 202.246094 1047.898438 56.660156 757.9375 56.660156 553.261719 C 56.660156 271.828125 287.886719 58.292969 553.371094 58.289062 Z M 553.371094 58.289062 " fill-opacity="1" fill-rule="nonzero"/></g></svg>